<svg width="40" height="40" viewBox="0 0 40 40" fill="none" xmlns="http://www.w3.org/2000/svg">
<path d="M19.9999 40C31.0456 40 39.9999 31.0457 39.9999 20C39.9999 8.9543 31.0456 0 19.9999 0C8.95418 0 -0.00012207 8.9543 -0.00012207 20C-0.00012207 31.0457 8.95418 40 19.9999 40Z" fill="#F5F6F7"/>
<path fill-rule="evenodd" clip-rule="evenodd" d="M11.8999 14C11.4028 14 10.9999 14.4029 10.9999 14.9C10.9999 15.3971 11.4028 15.8 11.8999 15.8H28.0999C28.5969 15.8 28.9999 15.3971 28.9999 14.9C28.9999 14.4029 28.5969 14 28.0999 14H11.8999ZM11.8999 19.3999C11.4028 19.3999 10.9999 19.8028 10.9999 20.2999C10.9999 20.797 11.4028 21.1999 11.8999 21.1999H28.0999C28.5969 21.1999 28.9999 20.797 28.9999 20.2999C28.9999 19.8028 28.5969 19.3999 28.0999 19.3999H11.8999ZM10.9999 25.7C10.9999 25.203 11.4028 24.8 11.8999 24.8H28.0999C28.5969 24.8 28.9999 25.203 28.9999 25.7C28.9999 26.1971 28.5969 26.6 28.0999 26.6H11.8999C11.4028 26.6 10.9999 26.1971 10.9999 25.7Z" fill="black"/>
</svg>
